<mxfile modified="2019-10-29T04:56:45.645Z" host="www.draw.io" agent="Mozilla/5.0 (Windows NT 10.0; Win64; x64) AppleWebKit/537.36 (KHTML, like Gecko) Chrome/77.0.3865.120 Safari/537.36" etag="Ocw9DpfFVRdcpRzLPCvi" version="12.1.8" type="github" pages="1">
  <diagram id="ugZ9LgQXZQDwEc-XwA1F" name="Page-1">
    <mxGraphModel dx="1704" dy="387" grid="1" gridSize="10" guides="1" tooltips="1" connect="1" arrows="1" fold="1" page="1" pageScale="1" pageWidth="850" pageHeight="1100" math="0" shadow="0">
      <root>
        <mxCell id="0"/>
        <mxCell id="1" parent="0"/>
        <mxCell id="pKMbjU2xyeOJQkZC159j-1" value="Master" style="shape=cylinder;whiteSpace=wrap;html=1;boundedLbl=1;backgroundOutline=1;" parent="1" vertex="1">
          <mxGeometry x="209" y="70" width="60" height="70" as="geometry"/>
        </mxCell>
        <mxCell id="pKMbjU2xyeOJQkZC159j-2" value="Release Branch" style="rounded=1;whiteSpace=wrap;html=1;" parent="1" vertex="1">
          <mxGeometry x="184" y="235" width="110" height="40" as="geometry"/>
        </mxCell>
        <mxCell id="pKMbjU2xyeOJQkZC159j-3" value="Feature Branch" style="rounded=1;whiteSpace=wrap;html=1;" parent="1" vertex="1">
          <mxGeometry x="190" y="430" width="110" height="40" as="geometry"/>
        </mxCell>
        <mxCell id="pKMbjU2xyeOJQkZC159j-5" value="Production" style="ellipse;shape=cloud;strokeWidth=2;fontSize=14;whiteSpace=wrap;html=1;align=center;fillColor=#dae8fc;strokeColor=#6c8ebf;" parent="1" vertex="1">
          <mxGeometry x="510" y="90" width="150" height="80" as="geometry"/>
        </mxCell>
        <mxCell id="pKMbjU2xyeOJQkZC159j-6" value="&lt;font style=&quot;font-size: 17px&quot;&gt;&lt;b&gt;Salesforce Environments&amp;nbsp;&lt;/b&gt;&lt;/font&gt;" style="text;html=1;resizable=0;points=[];autosize=1;align=left;verticalAlign=top;spacingTop=-4;fontColor=#660000;" parent="1" vertex="1">
          <mxGeometry x="500" y="20" width="220" height="20" as="geometry"/>
        </mxCell>
        <mxCell id="pKMbjU2xyeOJQkZC159j-7" value="&lt;font style=&quot;font-size: 17px&quot;&gt;&lt;b&gt;Git repository&amp;nbsp;&lt;/b&gt;&lt;/font&gt;" style="text;html=1;resizable=0;points=[];autosize=1;align=left;verticalAlign=top;spacingTop=-4;fontColor=#660000;" parent="1" vertex="1">
          <mxGeometry x="169" y="20" width="130" height="20" as="geometry"/>
        </mxCell>
        <mxCell id="pKMbjU2xyeOJQkZC159j-8" value="UAT" style="ellipse;shape=cloud;strokeWidth=2;fontSize=14;whiteSpace=wrap;html=1;align=center;fillColor=#dae8fc;strokeColor=#6c8ebf;" parent="1" vertex="1">
          <mxGeometry x="520" y="205" width="150" height="80" as="geometry"/>
        </mxCell>
        <mxCell id="pKMbjU2xyeOJQkZC159j-9" value="QA" style="ellipse;shape=cloud;strokeWidth=2;fontSize=14;whiteSpace=wrap;html=1;align=center;fillColor=#dae8fc;strokeColor=#6c8ebf;" parent="1" vertex="1">
          <mxGeometry x="524" y="301.5" width="155" height="78" as="geometry"/>
        </mxCell>
        <mxCell id="pKMbjU2xyeOJQkZC159j-10" value="Dev-5" style="ellipse;shape=cloud;strokeWidth=2;fontSize=14;whiteSpace=wrap;html=1;align=center;fillColor=#dae8fc;strokeColor=#6c8ebf;dashed=1;" parent="1" vertex="1">
          <mxGeometry x="395" y="560" width="125" height="50" as="geometry"/>
        </mxCell>
        <mxCell id="pKMbjU2xyeOJQkZC159j-11" value="Developer" style="rounded=1;whiteSpace=wrap;html=1;" parent="1" vertex="1">
          <mxGeometry x="190" y="325" width="110" height="40" as="geometry"/>
        </mxCell>
        <mxCell id="pKMbjU2xyeOJQkZC159j-15" value="Developers daily basis Git commits&amp;nbsp;" style="text;html=1;resizable=0;points=[];autosize=1;align=left;verticalAlign=top;spacingTop=-4;fontStyle=1" parent="1" vertex="1">
          <mxGeometry x="169" y="520" width="210" height="20" as="geometry"/>
        </mxCell>
        <mxCell id="pKMbjU2xyeOJQkZC159j-18" value="" style="html=1;shadow=0;dashed=0;align=center;verticalAlign=middle;shape=mxgraph.arrows2.arrow;dy=0.6;dx=40;direction=north;notch=0;rounded=0;strokeWidth=1;fillColor=none;opacity=60;" parent="1" vertex="1">
          <mxGeometry x="239" y="365" width="20" height="65" as="geometry"/>
        </mxCell>
        <mxCell id="pKMbjU2xyeOJQkZC159j-19" value="Sprint basis releases" style="text;html=1;resizable=0;points=[];autosize=1;align=left;verticalAlign=top;spacingTop=-4;" parent="1" vertex="1">
          <mxGeometry x="271.5" y="387.5" width="130" height="20" as="geometry"/>
        </mxCell>
        <mxCell id="pKMbjU2xyeOJQkZC159j-22" value="Text" style="text;html=1;resizable=0;points=[];autosize=1;align=left;verticalAlign=top;spacingTop=-4;" parent="1" vertex="1">
          <mxGeometry x="309" y="332" width="40" height="20" as="geometry"/>
        </mxCell>
        <mxCell id="pKMbjU2xyeOJQkZC159j-23" value="" style="html=1;shadow=0;dashed=0;align=center;verticalAlign=middle;shape=mxgraph.arrows2.twoWayArrow;dy=0.65;dx=22;rounded=0;strokeWidth=1;fillColor=none;opacity=60;" parent="1" vertex="1">
          <mxGeometry x="300" y="320" width="228" height="45" as="geometry"/>
        </mxCell>
        <mxCell id="pKMbjU2xyeOJQkZC159j-26" value="Current sprint releases + QA Bug fixes" style="text;html=1;resizable=0;points=[];autosize=1;align=left;verticalAlign=top;spacingTop=-4;" parent="1" vertex="1">
          <mxGeometry x="304" y="305" width="220" height="20" as="geometry"/>
        </mxCell>
        <mxCell id="pKMbjU2xyeOJQkZC159j-27" value="" style="html=1;shadow=0;dashed=0;align=center;verticalAlign=middle;shape=mxgraph.arrows2.arrow;dy=0.67;dx=24;direction=north;notch=13;rounded=0;strokeWidth=1;fillColor=none;opacity=60;" parent="1" vertex="1">
          <mxGeometry x="224" y="275" width="30" height="55" as="geometry"/>
        </mxCell>
        <mxCell id="QmjTFNfi9diBM-cBmNHH-2" style="edgeStyle=orthogonalEdgeStyle;rounded=0;orthogonalLoop=1;jettySize=auto;html=1;exitX=0;exitY=0.5;exitDx=0;exitDy=0;exitPerimeter=0;" parent="1" source="pKMbjU2xyeOJQkZC159j-28" edge="1">
          <mxGeometry relative="1" as="geometry">
            <mxPoint x="290" y="253" as="targetPoint"/>
          </mxGeometry>
        </mxCell>
        <mxCell id="pKMbjU2xyeOJQkZC159j-28" value="" style="html=1;shadow=0;dashed=0;align=center;verticalAlign=middle;shape=mxgraph.arrows2.twoWayArrow;dy=0.65;dx=22;rounded=0;strokeWidth=1;fillColor=none;opacity=60;" parent="1" vertex="1">
          <mxGeometry x="300" y="230" width="240" height="45" as="geometry"/>
        </mxCell>
        <mxCell id="pKMbjU2xyeOJQkZC159j-29" value="Current sprint releases + UAT Bug fixes" style="text;html=1;resizable=0;points=[];autosize=1;align=left;verticalAlign=top;spacingTop=-4;" parent="1" vertex="1">
          <mxGeometry x="310" y="216" width="230" height="20" as="geometry"/>
        </mxCell>
        <mxCell id="pKMbjU2xyeOJQkZC159j-33" value="" style="html=1;shadow=0;dashed=0;align=center;verticalAlign=middle;shape=mxgraph.arrows2.jumpInArrow;dy=15;dx=38;arrowHead=55;rounded=0;strokeWidth=1;fillColor=none;opacity=60;" parent="1" vertex="1">
          <mxGeometry x="270" y="110" width="250" height="120" as="geometry"/>
        </mxCell>
        <mxCell id="pKMbjU2xyeOJQkZC159j-34" value="&lt;font style=&quot;font-size: 14px&quot;&gt;Valid source code&lt;/font&gt;" style="text;html=1;resizable=0;points=[];autosize=1;align=left;verticalAlign=top;spacingTop=-4;rotation=-10;" parent="1" vertex="1">
          <mxGeometry x="345" y="130" width="130" height="20" as="geometry"/>
        </mxCell>
        <mxCell id="pKMbjU2xyeOJQkZC159j-35" value="" style="html=1;shadow=0;dashed=0;align=center;verticalAlign=middle;shape=mxgraph.arrows2.arrow;dy=0.47;dx=31;direction=north;notch=0;rounded=0;strokeWidth=1;fillColor=none;opacity=60;" parent="1" vertex="1">
          <mxGeometry x="223" y="140" width="27" height="90" as="geometry"/>
        </mxCell>
        <mxCell id="U-r_O4P5ikJAALDEmdnD-2" value="ST" style="ellipse;shape=cloud;strokeWidth=2;fontSize=14;whiteSpace=wrap;html=1;align=center;fillColor=#dae8fc;strokeColor=#6c8ebf;" parent="1" vertex="1">
          <mxGeometry x="510" y="411" width="155" height="78" as="geometry"/>
        </mxCell>
        <mxCell id="U-r_O4P5ikJAALDEmdnD-3" value="" style="html=1;shadow=0;dashed=0;align=center;verticalAlign=middle;shape=mxgraph.arrows2.twoWayArrow;dy=0.65;dx=22;rounded=0;strokeWidth=1;fillColor=none;opacity=60;" parent="1" vertex="1">
          <mxGeometry x="300" y="430" width="220" height="45" as="geometry"/>
        </mxCell>
        <mxCell id="U-r_O4P5ikJAALDEmdnD-4" value="Code quality check &amp;amp; System testing &lt;br&gt;with all developers commits" style="text;html=1;resizable=0;points=[];autosize=1;align=left;verticalAlign=top;spacingTop=-4;" parent="1" vertex="1">
          <mxGeometry x="320" y="470" width="210" height="30" as="geometry"/>
        </mxCell>
        <mxCell id="QmjTFNfi9diBM-cBmNHH-10" value="" style="edgeStyle=orthogonalEdgeStyle;rounded=0;orthogonalLoop=1;jettySize=auto;html=1;" parent="1" source="QmjTFNfi9diBM-cBmNHH-8" target="QmjTFNfi9diBM-cBmNHH-9" edge="1">
          <mxGeometry relative="1" as="geometry"/>
        </mxCell>
        <mxCell id="QmjTFNfi9diBM-cBmNHH-8" value="Hot-fix Dev" style="rounded=1;whiteSpace=wrap;html=1;" parent="1" vertex="1">
          <mxGeometry x="50" y="235" width="80" height="25" as="geometry"/>
        </mxCell>
        <mxCell id="QmjTFNfi9diBM-cBmNHH-9" value="Hot-fix Release" style="rounded=1;whiteSpace=wrap;html=1;" parent="1" vertex="1">
          <mxGeometry x="40" y="170" width="100" height="25" as="geometry"/>
        </mxCell>
        <mxCell id="QmjTFNfi9diBM-cBmNHH-11" value="Hot-Fix QA" style="ellipse;shape=cloud;strokeWidth=2;fontSize=14;whiteSpace=wrap;html=1;align=center;fillColor=#dae8fc;strokeColor=#6c8ebf;" parent="1" vertex="1">
          <mxGeometry x="-80" y="75" width="120" height="75" as="geometry"/>
        </mxCell>
        <mxCell id="QmjTFNfi9diBM-cBmNHH-15" value="Hot-Fix Dev" style="ellipse;shape=cloud;strokeWidth=2;fontSize=14;whiteSpace=wrap;html=1;align=center;fillColor=#dae8fc;strokeColor=#6c8ebf;" parent="1" vertex="1">
          <mxGeometry x="-80" y="209" width="110" height="62" as="geometry"/>
        </mxCell>
        <mxCell id="QmjTFNfi9diBM-cBmNHH-18" value="" style="shape=flexArrow;endArrow=classic;html=1;width=8;endSize=4.97;entryX=1;entryY=0.5;entryDx=0;entryDy=0;" parent="1" target="QmjTFNfi9diBM-cBmNHH-8" edge="1">
          <mxGeometry width="50" height="50" relative="1" as="geometry">
            <mxPoint x="180" y="260" as="sourcePoint"/>
            <mxPoint x="140" y="245" as="targetPoint"/>
            <Array as="points">
              <mxPoint x="150" y="248"/>
            </Array>
          </mxGeometry>
        </mxCell>
        <mxCell id="QmjTFNfi9diBM-cBmNHH-20" value="" style="shape=flexArrow;endArrow=classic;html=1;width=8;endSize=4.88;entryX=0.892;entryY=0.827;entryDx=0;entryDy=0;entryPerimeter=0;endWidth=10;" parent="1" target="QmjTFNfi9diBM-cBmNHH-11" edge="1">
          <mxGeometry width="50" height="50" relative="1" as="geometry">
            <mxPoint x="65" y="170" as="sourcePoint"/>
            <mxPoint x="115" y="120" as="targetPoint"/>
          </mxGeometry>
        </mxCell>
        <mxCell id="QmjTFNfi9diBM-cBmNHH-24" value="" style="endArrow=classic;html=1;exitX=1;exitY=0.5;exitDx=0;exitDy=0;" parent="1" source="QmjTFNfi9diBM-cBmNHH-9" edge="1">
          <mxGeometry width="50" height="50" relative="1" as="geometry">
            <mxPoint x="236.5" y="290" as="sourcePoint"/>
            <mxPoint x="337" y="160" as="targetPoint"/>
          </mxGeometry>
        </mxCell>
        <mxCell id="QmjTFNfi9diBM-cBmNHH-25" value="" style="shape=doubleArrow;whiteSpace=wrap;html=1;" parent="1" vertex="1">
          <mxGeometry x="20" y="228" width="30" height="20" as="geometry"/>
        </mxCell>
        <mxCell id="QmjTFNfi9diBM-cBmNHH-26" value="Dev-4" style="ellipse;shape=cloud;strokeWidth=2;fontSize=14;whiteSpace=wrap;html=1;align=center;fillColor=#dae8fc;strokeColor=#6c8ebf;dashed=1;" parent="1" vertex="1">
          <mxGeometry x="269" y="600" width="110" height="45" as="geometry"/>
        </mxCell>
        <mxCell id="QmjTFNfi9diBM-cBmNHH-27" value="Dev-3" style="ellipse;shape=cloud;strokeWidth=2;fontSize=14;whiteSpace=wrap;html=1;align=center;fillColor=#dae8fc;strokeColor=#6c8ebf;dashed=1;" parent="1" vertex="1">
          <mxGeometry x="129" y="610" width="111" height="40" as="geometry"/>
        </mxCell>
        <mxCell id="QmjTFNfi9diBM-cBmNHH-28" value="Dev-2" style="ellipse;shape=cloud;strokeWidth=2;fontSize=14;whiteSpace=wrap;html=1;align=center;fillColor=#dae8fc;strokeColor=#6c8ebf;dashed=1;" parent="1" vertex="1">
          <mxGeometry x="40" y="550" width="110" height="50" as="geometry"/>
        </mxCell>
        <mxCell id="QmjTFNfi9diBM-cBmNHH-30" value="Dev-1" style="ellipse;shape=cloud;strokeWidth=2;fontSize=14;whiteSpace=wrap;html=1;align=center;fillColor=#dae8fc;strokeColor=#6c8ebf;dashed=1;" parent="1" vertex="1">
          <mxGeometry x="5" y="475" width="125" height="45" as="geometry"/>
        </mxCell>
        <mxCell id="QmjTFNfi9diBM-cBmNHH-31" value="" style="endArrow=classic;html=1;entryX=0;entryY=0.75;entryDx=0;entryDy=0;dashed=1;" parent="1" target="pKMbjU2xyeOJQkZC159j-3" edge="1">
          <mxGeometry width="50" height="50" relative="1" as="geometry">
            <mxPoint x="120" y="502.5" as="sourcePoint"/>
            <mxPoint x="180" y="460" as="targetPoint"/>
          </mxGeometry>
        </mxCell>
        <mxCell id="QmjTFNfi9diBM-cBmNHH-33" value="" style="endArrow=classic;html=1;entryX=0;entryY=0.75;entryDx=0;entryDy=0;dashed=1;" parent="1" edge="1">
          <mxGeometry width="50" height="50" relative="1" as="geometry">
            <mxPoint x="150" y="570" as="sourcePoint"/>
            <mxPoint x="210" y="480" as="targetPoint"/>
          </mxGeometry>
        </mxCell>
        <mxCell id="QmjTFNfi9diBM-cBmNHH-34" value="" style="endArrow=classic;html=1;entryX=0;entryY=0.75;entryDx=0;entryDy=0;dashed=1;" parent="1" edge="1">
          <mxGeometry width="50" height="50" relative="1" as="geometry">
            <mxPoint x="194" y="602.5" as="sourcePoint"/>
            <mxPoint x="239" y="477.5" as="targetPoint"/>
          </mxGeometry>
        </mxCell>
        <mxCell id="QmjTFNfi9diBM-cBmNHH-35" value="" style="endArrow=classic;html=1;dashed=1;exitX=0.4;exitY=0.1;exitDx=0;exitDy=0;exitPerimeter=0;" parent="1" source="QmjTFNfi9diBM-cBmNHH-26" edge="1">
          <mxGeometry width="50" height="50" relative="1" as="geometry">
            <mxPoint x="160" y="542.5" as="sourcePoint"/>
            <mxPoint x="260" y="480" as="targetPoint"/>
          </mxGeometry>
        </mxCell>
        <mxCell id="QmjTFNfi9diBM-cBmNHH-36" value="" style="endArrow=classic;html=1;dashed=1;exitX=0.2;exitY=0.2;exitDx=0;exitDy=0;exitPerimeter=0;" parent="1" source="pKMbjU2xyeOJQkZC159j-10" edge="1">
          <mxGeometry width="50" height="50" relative="1" as="geometry">
            <mxPoint x="219" y="517.5" as="sourcePoint"/>
            <mxPoint x="289" y="475" as="targetPoint"/>
          </mxGeometry>
        </mxCell>
      </root>
    </mxGraphModel>
  </diagram>
</mxfile>
